<svg id="Layer_1" data-name="Layer 1" xmlns="http://www.w3.org/2000/svg" viewBox="0 0 498.9 306.98"><defs><style>.cls-1{fill:#1d1d1b;}</style></defs><title>approximate-logo</title><path class="cls-1" d="M356.9,187.08q-5.53,0-11.47-.36c-22-1.33-38-8.66-49.45-14.89-25.81-14.06-46.09-30.81-62.39-44.26-3.6-3-7.16-6-10.72-9-11.31-9.51-22-18.49-33.83-26.61a172.7,172.7,0,0,0-27.45-15.85c-5-2.23-13.82-2.49-20-2.45-11,0-17.32,3.5-29.37,10.71-12.87,7.71-29.54,20.81-42.93,31.34-3.48,2.74-6.79,5.35-9.87,7.73A36.85,36.85,0,0,1,14.29,65.21c2.94-2.28,6.11-4.77,9.43-7.39C38.75,46,57.46,31.29,74.35,21.18c14.87-8.9,35.23-21.1,67-21.18,14.18,0,32.68,1,50.45,8.94a249.36,249.36,0,0,1,38.9,22.29c14.82,10.16,27.4,20.74,39.57,31,3.39,2.84,6.78,5.69,10.21,8.52,15.3,12.63,31.13,25.7,50.73,36.38,7.51,4.09,12.38,5.67,18.62,6,10.56.63,18.14,0,23.14-2.1,12.44-5.09,22.38-12.12,33.89-20.26l2.46-1.73c4.95-3.5,9.74-7.53,14.82-11.79,4.93-4.14,10-8.43,15.89-12.78a36.85,36.85,0,1,1,44,59.13c-4.1,3.05-8.16,6.46-12.45,10.07-5.75,4.83-12.26,10.3-19.75,15.59L449.45,151c-13.28,9.39-28.32,20-48.55,28.31C388,184.54,373.83,187.08,356.9,187.08Z"/><path class="cls-1" d="M321.12,307c-2.72,0-5.52-.09-8.43-.26-17.1-1-29.34-6.64-38.09-11.4-18.25-9.95-32.27-21.52-43.54-30.82-2.44-2-4.84-4-7.25-6.06-7.29-6.13-14.19-11.93-21.58-17A104.12,104.12,0,0,0,186,232c-.45-.14-2.39-.61-8.13-.61h-.27c-3.93,0-5.89,1-13.29,5.4-7.92,4.74-18.69,13.21-27.34,20-2.35,1.85-4.58,3.6-6.65,5.21a36.85,36.85,0,0,1-45.12-58.28c1.93-1.49,4-3.13,6.21-4.86,10.29-8.09,23.1-18.17,35-25.32,10.5-6.29,26.38-15.79,51-15.86,10.68,0,24.72.75,38.71,7.05a178.6,178.6,0,0,1,27.84,15.92A346.86,346.86,0,0,1,271.25,202c2.23,1.88,4.46,3.76,6.72,5.63,9.76,8.05,19.85,16.38,31.89,22.94,3.73,2,5.26,2.43,7.27,2.55,7.46.45,9.8-.41,10-.5,7-2.86,12.8-7,20.15-12.17l1.65-1.16c2.87-2,5.74-4.44,9.06-7.23s7-5.85,11.16-9a36.85,36.85,0,1,1,44,59.13c-2.45,1.82-5,4-7.74,6.27-4,3.37-8.56,7.19-14,11l-1.58,1.12c-9.39,6.64-20,14.17-34.82,20.21C345,305,334,307,321.12,307ZM186,232Z"/></svg>